<?xml version="1.0" encoding="utf-8"?>
<!-- Generator: Adobe Illustrator 24.0.0, SVG Export Plug-In . SVG Version: 6.00 Build 0)  -->
<svg version="1.1" id="Layer_1" xmlns:svgjs="http://svgjs.com/svgjs"
	 xmlns="http://www.w3.org/2000/svg" xmlns:xlink="http://www.w3.org/1999/xlink" x="0px" y="0px" viewBox="0 0 100 68"
	 style="enable-background:new 0 0 100 68;" xml:space="preserve">
<style type="text/css">
	.st0{fill:#00A0D2;}
</style>
<g>
	<g>
		<g>
			<path class="st0" d="M66,15.4l-8,8L68.5,34L57.9,44.6l8,8L84.6,34L66,15.4z M60.8,44.6L71.3,34L60.8,23.4l5.2-5.2L81.7,34
				L66,49.7L60.8,44.6z"/>
		</g>
	</g>
	<g>
		<g>
			<rect x="75" y="33" class="st0" width="2" height="2"/>
		</g>
	</g>
	<g>
		<g>
			<path class="st0" d="M23.5,15.4l-8,8L26,34L15.4,44.6l8,8L42.1,34L23.5,15.4z M18.3,44.6L28.8,34L18.3,23.4l5.2-5.2L39.2,34
				L23.5,49.7L18.3,44.6z"/>
		</g>
	</g>
	<g>
		<g>
			<rect x="32.6" y="33" class="st0" width="2" height="2"/>
		</g>
	</g>
	<g>
		<g>
			<path class="st0" d="M44.7,15.4l-8,8L47.2,34L36.7,44.6l8,8L63.3,34L44.7,15.4z M39.5,44.6L50.1,34L39.5,23.4l5.2-5.2L60.5,34
				L44.7,49.7L39.5,44.6z"/>
		</g>
	</g>
	<g>
		<g>
			<rect x="53.8" y="33" class="st0" width="2" height="2"/>
		</g>
	</g>
</g>
</svg>
