<svg width="150" height="31" viewBox="0 0 150 31" fill="none" xmlns="http://www.w3.org/2000/svg">
<g clip-path="url(#clip0_6155_1560)">
<path d="M42.7051 16.2704C42.0659 16.2895 41.4273 16.2173 40.8086 16.0559C40.3512 15.9182 39.9253 15.6916 39.5554 15.3893C39.1721 15.0746 38.8714 14.671 38.6795 14.2137C38.4587 13.6219 38.3568 12.9923 38.3798 12.3611V6.3305H36.7598V4.29705H38.3798V0.45752H40.9636V4.29705H44.245V6.3305H40.9636V11.8185C40.9636 12.0452 40.9817 12.2716 41.0179 12.4955C41.0556 12.7252 41.1224 12.9492 41.2168 13.1621C41.3124 13.3794 41.4607 13.5695 41.6483 13.715C41.9432 13.9716 42.3108 14.1297 42.6999 14.1672C43.0197 14.2071 43.3414 14.2295 43.6637 14.2343H44.307V16.2678H42.6948L42.7051 16.2704Z" fill="#010101"/>
<path d="M45.3511 0.45752H47.9349V4.29705H51.4618C52.0757 4.29216 52.6886 4.34929 53.2911 4.46758C53.835 4.57333 54.345 4.81013 54.7768 5.15745C55.149 5.4908 55.4473 5.89829 55.6527 6.35375C55.9339 6.99356 56.0665 7.68881 56.0403 8.38721V16.2704H53.4565V9.08742C53.4565 8.96598 53.4565 8.82904 53.4565 8.64817C53.4473 8.46531 53.4214 8.28367 53.3789 8.10557C53.3337 7.91277 53.2741 7.72363 53.2007 7.53972C53.0887 7.26572 52.9132 7.02229 52.6885 6.82955C52.4639 6.63681 52.1966 6.50029 51.9088 6.43127C51.6093 6.36999 51.3049 6.33626 50.9993 6.3305H47.9478V16.2704H45.364V0.45752H45.3511Z" fill="#010101"/>
<path d="M61.5695 16.2701C61.275 16.2701 60.9649 16.2701 60.6394 16.2365C59.9703 16.193 59.326 15.9669 58.7765 15.5828C58.4623 15.359 58.1917 15.0797 57.9781 14.7585C57.5825 14.1558 57.3395 13.4659 57.2701 12.7483C57.1807 11.9686 57.1358 11.1845 57.1357 10.3997C57.1357 9.84155 57.1469 9.31876 57.1693 8.83129C57.1884 8.37473 57.248 7.92077 57.3476 7.47479C57.4358 7.07766 57.5775 6.69434 57.7688 6.33534C57.9679 5.97513 58.2305 5.65388 58.5439 5.38708C58.8613 5.10611 59.2261 4.88388 59.6214 4.7308C60.0049 4.58261 60.4022 4.47269 60.8073 4.40265C61.1885 4.33731 61.5734 4.29589 61.9597 4.27863C62.3292 4.26313 62.6547 4.25538 62.9338 4.25538C63.6195 4.25487 64.3046 4.29628 64.9853 4.3794C65.631 4.45324 66.2523 4.66945 66.8043 5.01243C67.1237 5.22165 67.405 5.48378 67.6363 5.78757C67.8536 6.07321 68.0277 6.38923 68.1531 6.72549C68.2815 7.06782 68.3683 7.42436 68.4114 7.78743C68.4559 8.15871 68.4784 8.53229 68.4786 8.90622C68.478 9.22088 68.4486 9.53482 68.3908 9.84414C68.3277 10.1749 68.1655 10.4786 67.9257 10.7149C67.7658 10.8854 67.5634 11.0103 67.3392 11.0766C67.1187 11.1373 66.8909 11.1678 66.6622 11.167H59.8203C59.8203 11.4254 59.8358 11.7174 59.8642 12.0481C59.8823 12.3089 59.9194 12.5679 59.9753 12.8233C60.0434 13.1005 60.1723 13.3591 60.3526 13.5803C60.5099 13.7648 60.7069 13.9114 60.9288 14.0092C61.1511 14.108 61.3872 14.1725 61.629 14.2004C61.868 14.2312 62.1088 14.2467 62.3499 14.2469H68.0936V16.2804H61.5695V16.2701ZM65.2075 9.13101C65.4659 9.13101 65.6184 9.05608 65.6855 8.90622C65.7519 8.75659 65.7854 8.59447 65.7837 8.4308C65.7931 8.09214 65.7128 7.75702 65.5512 7.45929C65.4219 7.21656 65.2464 7.0015 65.0344 6.82626C64.7249 6.57716 64.3533 6.41725 63.9596 6.36376C63.581 6.31218 63.1995 6.28543 62.8175 6.28366C62.6392 6.28366 62.448 6.28366 62.2413 6.28366C62.025 6.29217 61.8098 6.31897 61.598 6.36376C61.3699 6.41166 61.1498 6.4917 60.9443 6.60147C60.7202 6.72446 60.5199 6.88631 60.3526 7.07947C60.1032 7.34372 59.944 7.68023 59.8978 8.04064C59.8617 8.37912 59.8332 8.74602 59.8203 9.13618L65.2075 9.13101Z" fill="#010101"/>
<path d="M81.8857 2.50102V0.400391H84.4695V2.50102H81.8857ZM81.8857 4.23992H84.4695V16.2133H81.8857V4.23992Z" fill="#010101"/>
<path d="M92.9809 4.12404C93.4052 4.14081 93.8276 4.19005 94.2443 4.27132C94.6703 4.35394 95.0861 4.48214 95.4846 4.65372C95.885 4.82793 96.2529 5.06909 96.5723 5.36685C96.9122 5.68358 97.1869 6.06362 97.3811 6.48564C97.5756 6.89994 97.7279 7.33275 97.8358 7.77754C97.9377 8.20193 98.0043 8.63405 98.0348 9.06944C98.0632 9.4906 98.0787 9.86008 98.0787 10.1779C98.1133 11.2234 97.9673 12.2671 97.6472 13.2629C97.4267 13.9378 97.0597 14.5554 96.5723 15.0716C96.2614 15.3733 95.8969 15.6143 95.4975 15.7822C95.0912 15.9551 94.6677 16.0842 94.234 16.1671C93.8133 16.2475 93.3878 16.3001 92.9602 16.3248C92.5468 16.348 92.1695 16.3583 91.8285 16.3583C91.4874 16.3583 91.0895 16.3583 90.6761 16.3248C90.2519 16.3007 89.8297 16.2481 89.4126 16.1671C88.9856 16.0845 88.5688 15.9554 88.1698 15.7822C87.7705 15.6085 87.4035 15.3682 87.0846 15.0716C86.738 14.7516 86.4556 14.3684 86.2526 13.9425C86.0557 13.5302 85.9066 13.0968 85.8082 12.6506C85.7158 12.2248 85.6528 11.7931 85.6196 11.3587C85.5886 10.9453 85.5757 10.5835 85.5757 10.2864C85.5757 9.98927 85.5912 9.5707 85.6196 9.13404C85.6496 8.68921 85.7161 8.24761 85.8186 7.81371C85.9247 7.36257 86.0771 6.92358 86.2733 6.50373C86.4648 6.07837 86.7368 5.69408 87.0743 5.37202C87.3928 5.07434 87.7598 4.83317 88.1595 4.65889C88.5586 4.4865 88.9753 4.35827 89.4023 4.27649C89.8191 4.19521 90.2415 4.14598 90.6658 4.12921C91.0792 4.11371 91.4642 4.10596 91.8181 4.10596C92.1721 4.10596 92.5674 4.10854 92.9809 4.12404ZM88.3662 11.8289C88.43 12.3801 88.6577 12.8995 89.0199 13.3198C89.366 13.7323 89.8365 14.0215 90.3609 14.144C90.8449 14.2548 91.3397 14.312 91.8362 14.3146C92.3329 14.3135 92.8278 14.2563 93.3116 14.144C93.8286 14.0177 94.2914 13.7288 94.6319 13.3198C95.003 12.9117 95.2393 12.3993 95.3089 11.8522C95.3754 11.3199 95.409 10.7841 95.4096 10.2477V9.52419C95.4086 9.24469 95.3861 8.96569 95.3425 8.68962C95.2931 8.40433 95.2152 8.12474 95.1099 7.85505C95.0075 7.56853 94.8494 7.3051 94.6448 7.07991C94.4629 6.87478 94.2492 6.7003 94.0118 6.56315C93.7876 6.43875 93.5501 6.33994 93.3038 6.2686C93.0607 6.2016 92.8114 6.16004 92.5597 6.14458C92.3013 6.12907 92.0636 6.12132 91.8285 6.12132C91.5934 6.12132 91.3892 6.12132 91.1309 6.14458C90.8689 6.15933 90.6092 6.20088 90.3557 6.2686C90.0982 6.33835 89.8494 6.43717 89.6142 6.56315C89.3711 6.69197 89.156 6.86759 88.9811 7.07991C88.7974 7.30175 88.6548 7.55463 88.56 7.82663C88.4573 8.1088 88.3828 8.40048 88.3378 8.69737C88.2949 8.97806 88.2691 9.26106 88.2602 9.54486C88.2602 9.80324 88.2602 10.0487 88.2602 10.2451C88.2638 10.7747 88.2991 11.3036 88.3662 11.8289Z" fill="#010101"/>
<path d="M99.1665 2.50102V0.400391H101.75V2.50102H99.1665ZM99.1665 4.23992H101.75V16.2133H99.1665V4.23992Z" fill="#010101"/>
<path d="M105.45 0.400391V4.23734H108.886C109.253 4.23853 109.62 4.26096 109.985 4.30451C110.367 4.35145 110.742 4.44338 111.103 4.5784C111.476 4.71984 111.824 4.91765 112.137 5.16492C112.489 5.4508 112.783 5.80167 113.002 6.19844C113.335 6.77923 113.55 7.42036 113.633 8.08462C113.731 8.81515 113.779 9.55151 113.778 10.2886C113.792 11.0951 113.726 11.901 113.579 12.6941C113.477 13.2371 113.289 13.7603 113.023 14.2444C112.811 14.6353 112.525 14.981 112.181 15.2624C111.867 15.5108 111.519 15.7127 111.147 15.8619C110.792 16.0045 110.419 16.0992 110.039 16.1435C109.682 16.1866 109.323 16.209 108.964 16.2107H105.251C104.921 16.211 104.591 16.1885 104.264 16.1435C103.931 16.0899 103.624 15.9315 103.388 15.6913C103.17 15.4966 103.017 15.2409 102.946 14.9575C102.889 14.7092 102.86 14.4553 102.858 14.2005V0.400391H105.45ZM105.45 13.185C105.45 13.3065 105.45 13.4434 105.45 13.5804C105.46 13.7272 105.519 13.8665 105.618 13.9757C105.704 14.0648 105.816 14.1245 105.938 14.1462C106.066 14.1692 106.196 14.1804 106.326 14.1798H108.212C108.39 14.1798 108.589 14.1798 108.811 14.1565C109.04 14.1398 109.264 14.0901 109.478 14.0093C109.712 13.9207 109.932 13.7988 110.132 13.6475C110.366 13.4652 110.552 13.2284 110.674 12.9577C110.779 12.6969 110.865 12.4293 110.933 12.1567C111.048 11.5811 111.097 10.9942 111.077 10.4075C111.102 9.71437 111.047 9.02075 110.912 8.34041C110.852 8.07718 110.774 7.81823 110.68 7.56527C110.519 7.22453 110.275 6.92995 109.97 6.70902C109.665 6.48808 109.309 6.34798 108.935 6.30179C108.727 6.27305 108.516 6.25838 108.305 6.25787H105.45V13.185Z" fill="#010101"/>
<path d="M122.4 4.23732C122.878 4.23617 123.352 4.32378 123.798 4.4957C124.189 4.64066 124.542 4.87206 124.831 5.17265C125.116 5.4875 125.328 5.86166 125.451 6.26818C125.627 6.82703 125.71 7.411 125.697 7.99675V14.1979C125.693 14.458 125.667 14.7173 125.619 14.973C125.575 15.2659 125.439 15.5372 125.232 15.7482C125.029 15.9484 124.769 16.0796 124.487 16.1228C124.202 16.1744 123.912 16.2012 123.622 16.2029H118.012C117.661 16.2009 117.31 16.1784 116.961 16.1357C116.557 16.0786 116.181 15.8981 115.883 15.619C115.651 15.4115 115.459 15.1627 115.318 14.8852C115.177 14.6097 115.072 14.317 115.007 14.0144C114.941 13.7248 114.901 13.43 114.886 13.1333C114.871 12.8474 114.863 12.589 114.863 12.3582C114.862 11.8369 114.918 11.317 115.031 10.8079C115.153 10.2772 115.445 9.80096 115.863 9.45143C116.174 9.15187 116.562 8.94438 116.984 8.85199C117.325 8.78693 117.671 8.7532 118.018 8.75122H123.118V7.91665C123.117 7.72677 123.099 7.53737 123.064 7.3508C123.021 7.1426 122.926 6.94874 122.787 6.78753C122.638 6.58008 122.423 6.42898 122.178 6.35862C121.964 6.30099 121.745 6.2706 121.524 6.26818H115.736V4.23732H122.402H122.4ZM118.782 10.7873C118.637 10.7951 118.493 10.8141 118.351 10.8441C118.141 10.8907 117.956 11.0154 117.834 11.1929C117.763 11.3071 117.703 11.4283 117.656 11.5546C117.565 11.8541 117.527 12.1672 117.545 12.4796C117.548 12.7063 117.567 12.9325 117.602 13.1566C117.627 13.4024 117.732 13.633 117.901 13.8129C118.008 13.9198 118.132 14.0072 118.268 14.0713C118.416 14.145 118.579 14.1839 118.744 14.185H122.361C122.433 14.185 122.526 14.185 122.637 14.185C122.748 14.1769 122.853 14.1334 122.937 14.0609C123.015 14.0019 123.069 13.9179 123.092 13.8232C123.108 13.738 123.116 13.6515 123.115 13.5648V10.7847H118.785L118.782 10.7873Z" fill="#010101"/>
<path d="M126.797 6.10307C126.8 5.89101 126.818 5.67943 126.852 5.47003C126.891 5.22436 127.003 4.99594 127.172 4.81375C127.397 4.54144 127.72 4.36729 128.071 4.32799C128.37 4.29388 128.67 4.2749 128.97 4.27115H133.117C133.705 4.26775 134.292 4.32053 134.869 4.42876C135.446 4.55 135.976 4.83221 136.399 5.24266C136.737 5.57237 137.008 5.96349 137.2 6.39504C137.459 7.02046 137.579 7.69505 137.551 8.37164V16.2445H134.967V9.14678C134.969 8.76522 134.939 8.38418 134.88 8.00733C134.826 7.65238 134.69 7.31504 134.482 7.0229C134.299 6.77391 134.049 6.58212 133.761 6.46997C133.394 6.3438 133.007 6.28601 132.619 6.29943H129.965C129.891 6.29557 129.817 6.29557 129.743 6.29943C129.657 6.31358 129.578 6.35746 129.521 6.42346C129.449 6.49115 129.406 6.58346 129.399 6.68184C129.399 6.77227 129.399 6.85495 129.399 6.94022V16.2419H126.815V6.10307H126.797Z" fill="#010101"/>
<path d="M139.58 19.1486C139.58 18.8795 139.688 18.6216 139.878 18.4314C140.068 18.2411 140.326 18.1339 140.595 18.1332H144.525C144.881 18.1282 145.237 18.1015 145.59 18.0531C145.996 18.0091 146.381 17.8485 146.698 17.5906C147.088 17.2315 147.333 16.7413 147.385 16.2134H143.215C142.905 16.2134 142.59 16.1979 142.272 16.1695C141.952 16.1375 141.636 16.0734 141.329 15.9783C141.008 15.8749 140.704 15.7224 140.43 15.5261C140.116 15.2999 139.852 15.0114 139.655 14.6786C139.052 13.7158 138.75 12.1724 138.75 10.0485C138.741 9.19955 138.819 8.3519 138.983 7.51894C139.136 6.78444 139.485 6.10505 139.993 5.55266C140.241 5.26358 140.533 5.01587 140.859 4.81886C141.143 4.64999 141.449 4.52048 141.768 4.43388C142.072 4.35132 142.384 4.29853 142.698 4.27626C143.008 4.25301 143.313 4.24268 143.608 4.24268H147.406C147.74 4.24266 148.073 4.2651 148.403 4.30985C148.738 4.35976 149.053 4.50101 149.313 4.7181C149.587 4.94189 149.785 5.24525 149.879 5.58625C149.954 5.87059 149.995 6.16293 150 6.45699V14.8595C150.005 15.5796 149.942 16.2984 149.812 17.0067C149.699 17.6338 149.433 18.2233 149.036 18.7223C148.777 19.0454 148.452 19.3097 148.083 19.4974C147.73 19.6793 147.358 19.8231 146.975 19.9264C146.629 20.0194 146.276 20.0833 145.92 20.1176C145.587 20.146 145.318 20.1615 145.109 20.1615H140.593C140.323 20.1601 140.066 20.0523 139.876 19.8615C139.686 19.6707 139.58 19.4126 139.58 19.1435V19.1486ZM147.409 7.2218C147.411 7.07696 147.393 6.93251 147.354 6.79289C147.302 6.6526 147.205 6.53357 147.078 6.45441C146.973 6.38433 146.857 6.33357 146.734 6.30455C146.621 6.28148 146.506 6.27023 146.391 6.27096H144.176C143.776 6.26651 143.379 6.3312 143.001 6.46216C142.677 6.57061 142.387 6.76111 142.158 7.01509C141.971 7.24326 141.831 7.50688 141.747 7.79024C141.653 8.09694 141.582 8.41052 141.536 8.72816C141.494 9.02366 141.468 9.32124 141.458 9.61957C141.458 9.89862 141.458 10.1053 141.458 10.2397C141.454 10.6962 141.477 11.1526 141.525 11.6065C141.56 11.919 141.615 12.2289 141.691 12.5341C141.742 12.7401 141.813 12.9408 141.903 13.1335C141.959 13.2571 142.034 13.3713 142.125 13.472C142.382 13.796 142.75 14.0132 143.158 14.0818C143.547 14.1409 143.94 14.1712 144.334 14.1722H147.416V7.2218H147.409Z" fill="#010101"/>
<path fill-rule="evenodd" clip-rule="evenodd" d="M28.8326 0.361816H0.51676C0.379707 0.361816 0.248267 0.416261 0.151356 0.513172C0.0544442 0.610083 0 0.741523 0 0.878577L0 29.197C0 29.3341 0.0544442 29.4655 0.151356 29.5624C0.248267 29.6594 0.379707 29.7138 0.51676 29.7138H28.8352C28.9723 29.7138 29.1037 29.6594 29.2006 29.5624C29.2975 29.4655 29.352 29.3341 29.352 29.197V0.878577C29.352 0.741523 29.2975 0.610083 29.2006 0.513172C29.1037 0.416261 28.9723 0.361816 28.8352 0.361816M4.2271 8.30184C4.09005 8.30184 3.95861 8.24739 3.86169 8.15048C3.76478 8.05357 3.71034 7.92213 3.71034 7.78508V4.46748C3.71033 4.35461 3.75481 4.24629 3.83413 4.166C3.91345 4.08571 4.02123 4.03993 4.13408 4.03857H25.1197C25.2568 4.03857 25.3882 4.09301 25.4851 4.18992C25.582 4.28683 25.6365 4.41827 25.6365 4.55533V25.4454C25.6365 25.5824 25.582 25.7139 25.4851 25.8108C25.3882 25.9077 25.2568 25.9621 25.1197 25.9621H21.8848C21.7477 25.9621 21.6163 25.9077 21.5194 25.8108C21.4225 25.7139 21.368 25.5824 21.368 25.4454V8.75917C21.337 8.50079 21.2388 8.35351 20.9831 8.30184H4.2271ZM4.34337 19.8618H9.43346C9.57051 19.8618 9.70195 19.9162 9.79886 20.0131C9.89577 20.11 9.95022 20.2415 9.95022 20.3785V25.4686C9.94685 25.6034 9.89092 25.7316 9.79437 25.8257C9.69782 25.9198 9.5683 25.9725 9.43346 25.9725H4.26586C4.15484 25.9725 4.04838 25.9284 3.96988 25.8499C3.89138 25.7714 3.84728 25.6649 3.84728 25.5539V20.3863C3.84378 20.3189 3.85401 20.2514 3.87733 20.1881C3.90066 20.1248 3.93661 20.0668 3.98299 20.0178C4.02937 19.9687 4.08523 19.9296 4.14718 19.9028C4.20912 19.876 4.27587 19.862 4.34337 19.8618ZM4.2271 16.216C4.09005 16.216 3.95861 16.1616 3.86169 16.0647C3.76478 15.9678 3.71034 15.8363 3.71034 15.6993V12.4669C3.71034 12.3299 3.76478 12.1984 3.86169 12.1015C3.95861 12.0046 4.09005 11.9502 4.2271 11.9502H17.203C17.34 11.9502 17.4714 12.0046 17.5684 12.1015C17.6653 12.1984 17.7197 12.3299 17.7197 12.4669V25.5306C17.7197 25.6444 17.6745 25.7535 17.5941 25.8339C17.5136 25.9143 17.4046 25.9595 17.2908 25.9595H13.8828C13.769 25.9595 13.6599 25.9143 13.5795 25.8339C13.499 25.7535 13.4539 25.6444 13.4539 25.5306V16.6734C13.4228 16.415 13.3247 16.2677 13.0689 16.216" fill="#1E5128"/>
<path d="M125.139 20.2079H82.4235C82.2864 20.2079 82.155 20.1534 82.0581 20.0565C81.9612 19.9596 81.9067 19.8282 81.9067 19.6911V18.7067C81.9067 18.5696 81.9612 18.4382 82.0581 18.3413C82.155 18.2444 82.2864 18.1899 82.4235 18.1899H125.139C125.289 18.1906 125.432 18.2505 125.538 18.3564C125.644 18.4624 125.704 18.6059 125.705 18.7558V19.655C125.701 19.8028 125.64 19.9434 125.535 20.0467C125.429 20.1501 125.287 20.2079 125.139 20.2079Z" fill="#010101"/>
<path d="M126.865 20.7895V20.1797H127.431V20.7895H126.865Z" fill="#010101"/>
<path d="M129.12 20.7892C128.983 20.7952 128.846 20.7708 128.719 20.7176C128.592 20.6644 128.479 20.5839 128.387 20.4817C128.206 20.2132 128.127 19.8887 128.164 19.567C128.164 19.2699 128.164 18.8384 128.444 18.549C128.544 18.456 128.663 18.385 128.792 18.3405C128.922 18.2961 129.059 18.2791 129.195 18.2906H130.25V18.7066H129.371C129.24 18.6908 129.107 18.7221 128.996 18.795C128.885 18.8678 128.804 18.9775 128.767 19.1045C128.737 19.2604 128.723 19.4188 128.725 19.5774C128.718 19.7532 128.746 19.9286 128.805 20.0941C128.872 20.192 128.966 20.2684 129.076 20.3143C129.186 20.3601 129.306 20.3734 129.423 20.3525H130.306V20.7788L129.12 20.7892Z" fill="#010101"/>
<path d="M132.991 18.5157C133.275 18.774 133.306 19.2598 133.306 19.5259C133.306 20.0427 133.172 20.3734 132.991 20.5594C132.732 20.8178 132.28 20.8307 131.996 20.8307C131.712 20.8307 131.27 20.8127 131.001 20.5594C130.733 20.3062 130.686 19.8101 130.686 19.5543C130.686 19.2986 130.717 18.7973 131.001 18.5208C131.285 18.2444 131.704 18.2624 131.996 18.2624C132.288 18.2624 132.722 18.2599 132.991 18.5157ZM131.407 20.1822C131.483 20.2586 131.576 20.3171 131.678 20.3533C131.78 20.3894 131.888 20.4025 131.996 20.3915C132.103 20.4029 132.212 20.39 132.313 20.3537C132.415 20.3175 132.507 20.2589 132.583 20.1822C132.715 19.9956 132.773 19.7661 132.745 19.5388C132.774 19.3058 132.718 19.0701 132.588 18.8748C132.51 18.8008 132.417 18.7447 132.315 18.7104C132.213 18.676 132.105 18.6642 131.999 18.6759C131.891 18.6658 131.783 18.6783 131.68 18.7126C131.578 18.7469 131.484 18.8021 131.404 18.8748C131.284 19.0743 131.231 19.3069 131.252 19.5388C131.225 19.7649 131.28 19.9931 131.407 20.1822Z" fill="#010101"/>
<path d="M133.941 18.7068C133.938 18.6074 133.962 18.5091 134.011 18.4225C134.057 18.3695 134.114 18.328 134.179 18.3015C134.244 18.275 134.314 18.2643 134.383 18.2701H136.6C136.827 18.2593 137.049 18.3298 137.228 18.469C137.379 18.6372 137.459 18.8579 137.45 19.084V20.779H136.905V19.177C136.914 19.05 136.879 18.9238 136.804 18.8204C136.761 18.7776 136.709 18.7447 136.652 18.7241C136.595 18.7036 136.534 18.6959 136.474 18.7016H135.957V20.7867H135.414V18.7068H134.618C134.597 18.7037 134.574 18.7056 134.553 18.7123C134.532 18.719 134.513 18.7304 134.497 18.7455C134.497 18.7455 134.474 18.7843 134.474 18.8773V20.7919H133.931V18.7068H133.941Z" fill="#010101"/>
<path d="M36.8839 19.0943C36.8846 18.8108 36.9975 18.5391 37.198 18.3387C37.3984 18.1382 37.6701 18.0253 37.9536 18.0246L75.3231 18.1124C75.6783 18.1071 76.0329 18.0812 76.3851 18.0349C76.7907 17.991 77.1748 17.8303 77.491 17.5724C77.8806 17.2142 78.1244 16.7247 78.1757 16.1978H74.0157C73.7057 16.1978 73.393 16.1823 73.0752 16.1513C72.7559 16.1208 72.4407 16.0567 72.1347 15.9601C71.8148 15.8566 71.5125 15.705 71.2382 15.5106C70.9256 15.2839 70.6619 14.9965 70.463 14.6656C69.8584 13.7045 69.5561 12.1645 69.5561 10.0458C69.5467 9.1986 69.6246 8.35267 69.7886 7.52144C69.9426 6.78921 70.2907 6.11187 70.7963 5.56033C71.2577 5.0154 71.8757 4.62569 72.5662 4.44413C72.8707 4.36282 73.1821 4.31006 73.4964 4.28652C73.8065 4.26326 74.1088 4.25293 74.4033 4.25293H78.186C78.5196 4.25291 78.8528 4.27536 79.1833 4.32011C79.5197 4.36887 79.8361 4.50921 80.098 4.72577C80.3721 4.949 80.5691 5.25268 80.6613 5.59392C80.7377 5.87713 80.7785 6.16877 80.7827 6.46208V14.8465C80.7875 15.5649 80.7244 16.282 80.5941 16.9885C80.4885 17.6148 80.2293 18.2051 79.8396 18.7067C79.581 19.0293 79.2569 19.2935 78.8888 19.4819C78.5331 19.6635 78.1589 19.8065 77.7726 19.9082C77.428 20.0012 77.0762 20.0651 76.721 20.0994C76.3868 20.1304 76.1181 20.1459 75.9148 20.1459L37.9459 20.1666C37.6633 20.1632 37.3933 20.0489 37.1942 19.8483C36.995 19.6477 36.8827 19.3769 36.8813 19.0943H36.8839ZM78.2015 7.22689C78.2041 7.08205 78.1859 6.93759 78.1472 6.79797C78.095 6.65769 77.9978 6.53865 77.8708 6.4595C77.7659 6.39032 77.6495 6.34044 77.5271 6.31222C77.414 6.28916 77.2989 6.2779 77.1835 6.27863H74.9717C74.5726 6.27422 74.1758 6.33891 73.7987 6.46983C73.4744 6.57731 73.184 6.76796 72.9564 7.02276C72.768 7.25041 72.6282 7.5142 72.5456 7.79791C72.4507 8.10354 72.3807 8.41634 72.3363 8.73324C72.294 9.02873 72.2682 9.32632 72.2588 9.62465C72.2588 9.90112 72.2588 10.1078 72.2588 10.2448C72.2548 10.7004 72.2772 11.1559 72.3259 11.609C72.3603 11.9207 72.4155 12.2297 72.4913 12.534C72.5431 12.7388 72.6131 12.9386 72.7006 13.1309C72.7559 13.255 72.8309 13.3693 72.9228 13.4693C73.1799 13.7931 73.5483 14.0096 73.9563 14.0765C74.3446 14.1357 74.7366 14.1659 75.1294 14.167H78.2041V7.22689H78.2015Z" fill="#010101"/>
<path d="M40.1934 28.5924H41.0822C40.925 28.9636 40.6535 29.275 40.3071 29.4812C39.9688 29.6961 39.5761 29.8099 39.1754 29.8094C38.8948 29.813 38.6165 29.7584 38.3581 29.649C38.0997 29.5396 37.8668 29.3778 37.6742 29.1737C37.4733 28.9761 37.3145 28.7399 37.2075 28.4792C37.1005 28.2185 37.0474 27.9388 37.0515 27.6571C37.0481 27.3785 37.1016 27.1021 37.2087 26.8449C37.3157 26.5876 37.4741 26.355 37.6742 26.161C37.8649 25.9608 38.0947 25.802 38.3494 25.6944C38.6041 25.5869 38.8782 25.5329 39.1547 25.5358C39.5679 25.5349 39.9729 25.6514 40.3226 25.8717C40.671 26.0848 40.9425 26.4033 41.0977 26.7811H40.2347C40.1063 26.6222 39.9438 26.4942 39.7593 26.4065C39.5735 26.3156 39.3693 26.2687 39.1625 26.2696C38.9836 26.2679 38.8064 26.3042 38.6426 26.3759C38.4787 26.4476 38.3318 26.5531 38.2116 26.6855C38.0836 26.8173 37.9828 26.9729 37.915 27.1436C37.8471 27.3143 37.8136 27.4967 37.8163 27.6803C37.8154 27.8609 37.8506 28.0399 37.9198 28.2067C37.9891 28.3736 38.0909 28.5249 38.2194 28.6518C38.3405 28.7831 38.4875 28.8879 38.6512 28.9595C38.8148 29.0311 38.9916 29.068 39.1702 29.0678C39.3611 29.068 39.5498 29.0265 39.7231 28.9464C39.9014 28.86 40.0611 28.7398 40.1934 28.5924Z" fill="#1E5128"/>
<path d="M44.5369 25.5332C45.0904 25.5525 45.6148 25.7859 45.9996 26.1843C46.3843 26.5827 46.5994 27.1149 46.5994 27.6687C46.5994 28.2226 46.3843 28.7548 45.9996 29.1532C45.6148 29.5516 45.0904 29.785 44.5369 29.8042C44.2569 29.8083 43.979 29.7554 43.72 29.6488C43.4611 29.5422 43.2265 29.3841 43.0305 29.1841C42.8276 28.9894 42.667 28.7549 42.559 28.4952C42.4509 28.2356 42.3977 27.9564 42.4027 27.6752C42.4016 27.3943 42.4561 27.1159 42.5629 26.8561C42.6697 26.5962 42.8267 26.3601 43.025 26.1611C43.2233 25.962 43.4589 25.8042 43.7184 25.6964C43.9778 25.5887 44.256 25.5332 44.5369 25.5332ZM44.5369 26.2696C44.3552 26.2671 44.1749 26.3021 44.0073 26.3723C43.8397 26.4425 43.6884 26.5465 43.5628 26.6778C43.4327 26.8062 43.3301 26.9596 43.2613 27.1289C43.1924 27.2981 43.1588 27.4796 43.1623 27.6623C43.1603 27.8458 43.1954 28.0279 43.2656 28.1975C43.3358 28.3671 43.4395 28.5208 43.5705 28.6493C43.6947 28.7814 43.8446 28.8867 44.0111 28.9586C44.1775 29.0306 44.3569 29.0677 44.5382 29.0677C44.7195 29.0677 44.8989 29.0306 45.0653 28.9586C45.2317 28.8867 45.3816 28.7814 45.5058 28.6493C45.6363 28.5203 45.7396 28.3666 45.8097 28.197C45.8798 28.0275 45.9153 27.8457 45.914 27.6623C45.917 27.4797 45.883 27.2984 45.8142 27.1292C45.7454 26.96 45.6431 26.8065 45.5136 26.6778C45.3874 26.5465 45.2357 26.4424 45.0677 26.3722C44.8996 26.302 44.719 26.267 44.5369 26.2696ZM43.4801 25.2361L44.2992 24.4609H44.8805L45.6893 25.2361H44.8857L44.586 24.8821L44.2837 25.2361H43.4801Z" fill="#1E5128"/>
<path d="M48.2988 29.7062V25.6108H49.1541L50.8594 28.6003V25.6108H51.619V29.7062H50.7767L49.0585 26.7167V29.6984L48.2988 29.7062Z" fill="#1E5128"/>
<path d="M57.3836 26.8148H56.4767C56.3548 26.6447 56.1923 26.5079 56.0038 26.4169C55.8165 26.3217 55.6094 26.2721 55.3992 26.2722C55.2229 26.2709 55.0479 26.3016 54.8825 26.3626C54.7203 26.4203 54.5704 26.508 54.4406 26.621C54.2949 26.7523 54.1779 26.9125 54.097 27.0912C54.014 27.2666 53.9699 27.4579 53.9678 27.6519C53.9676 27.7386 53.9754 27.8251 53.9911 27.9103C54.0074 27.999 54.0334 28.0857 54.0686 28.1687C54.103 28.2518 54.1454 28.3315 54.1952 28.4064C54.2437 28.4803 54.2991 28.5495 54.3605 28.6131C54.4967 28.7583 54.6612 28.8741 54.8438 28.9532C55.0265 29.0323 55.2234 29.0731 55.4225 29.073C55.6679 29.0712 55.9078 29.0005 56.1149 28.8689C56.3295 28.7423 56.5041 28.5578 56.6188 28.3366H54.9057V27.6209H57.5774V27.7114C57.5813 27.9928 57.5255 28.2719 57.4137 28.5302C57.3019 28.7885 57.1367 29.0202 56.9288 29.21C56.5126 29.5983 55.9646 29.8142 55.3954 29.8142C54.8261 29.8142 54.2781 29.5983 53.8619 29.21C53.6522 29.0176 53.4857 28.783 53.3735 28.5215C53.2612 28.2601 53.2058 27.9778 53.2108 27.6933C53.2063 27.4088 53.2612 27.1266 53.372 26.8645C53.4828 26.6025 53.647 26.3664 53.8541 26.1714C54.0548 25.9694 54.2941 25.8099 54.5578 25.7025C54.8215 25.5951 55.1042 25.5419 55.3889 25.5461C55.8098 25.5443 56.2224 25.6636 56.5775 25.8898C56.9406 26.101 57.224 26.4262 57.3836 26.8148Z" fill="#1E5128"/>
<path d="M62.1173 29.7062V26.3472H61.3628V25.6108H63.6417V26.3472H62.8666V29.7062H62.1173Z" fill="#1E5128"/>
<path d="M66.0445 29.7062V28.1946L64.6958 25.6108H65.533L66.4269 27.4944L67.3209 25.6108H68.1529L66.8042 28.1946V29.7062H66.0445Z" fill="#1E5128"/>
<path d="M72.106 29.7062V25.6108H73.018C73.149 25.6108 73.2601 25.6108 73.3514 25.6108C73.4321 25.6147 73.5125 25.6251 73.5916 25.6418C73.7128 25.6641 73.8302 25.7032 73.9405 25.7581C74.1114 25.8464 74.2552 25.9795 74.3564 26.1431C74.4606 26.3021 74.5163 26.4879 74.5166 26.6779C74.5198 26.8374 74.4815 26.995 74.4055 27.1353C74.3291 27.2762 74.2108 27.3899 74.0671 27.4608C74.2767 27.5209 74.4592 27.6514 74.5838 27.8303C74.7078 28.013 74.7719 28.2297 74.7673 28.4504C74.7696 28.64 74.7252 28.8273 74.6381 28.9956C74.5485 29.1651 74.4222 29.3125 74.2686 29.4271C74.1069 29.5401 73.9227 29.6167 73.7286 29.6519C73.5323 29.6856 73.3334 29.7012 73.1343 29.6984L72.106 29.7062ZM72.8656 27.1844H73.1395C73.2031 27.1891 73.267 27.1891 73.3307 27.1844C73.3624 27.1883 73.3945 27.1883 73.4263 27.1844C73.4608 27.175 73.4945 27.1629 73.527 27.1482C73.5972 27.1155 73.6557 27.0624 73.695 26.9958C73.7366 26.9281 73.7589 26.8504 73.7596 26.771C73.7604 26.6942 73.7368 26.6191 73.6924 26.5565C73.6439 26.4909 73.5775 26.4406 73.5012 26.4118C73.4624 26.3952 73.4216 26.3839 73.3798 26.3782H73.2299H72.863V27.2128L72.8656 27.1844ZM72.8656 28.9698H73.1834C73.2661 28.9698 73.341 28.9698 73.403 28.9698C73.4587 28.9651 73.514 28.9565 73.5684 28.9439C73.6529 28.9241 73.7327 28.8882 73.8035 28.838C73.8682 28.7945 73.9214 28.736 73.9585 28.6675C73.9927 28.5948 74.0096 28.5152 74.0076 28.4349C74.0129 28.3439 73.9894 28.2535 73.9405 28.1766C73.8924 28.1074 73.8307 28.0488 73.7592 28.0044C73.6876 27.9599 73.6078 27.9306 73.5245 27.9182C73.4388 27.9073 73.3525 27.9021 73.2661 27.9027H72.863V28.9517L72.8656 28.9698Z" fill="#1E5128"/>
<path d="M76.0127 29.7059L77.7206 25.6106H78.3123L80.0357 29.7059H79.1985L78.7541 28.6491H77.3046L76.8498 29.7059H76.0127ZM77.3614 24.5383V24.4427V24.329C77.3604 24.3178 77.3604 24.3066 77.3614 24.2954C77.3704 24.2758 77.3808 24.2568 77.3924 24.2386C77.4065 24.2029 77.4247 24.1691 77.4467 24.1378C77.4726 24.1014 77.5011 24.0668 77.532 24.0344C77.5593 24.007 77.5896 23.9827 77.6224 23.9621C77.6608 23.9369 77.7015 23.9153 77.7438 23.8975C77.8329 23.8623 77.9272 23.8422 78.0229 23.8381C78.107 23.836 78.1907 23.8515 78.2685 23.8836C78.3464 23.9156 78.4167 23.9634 78.4751 24.0241C78.5339 24.0814 78.5803 24.1502 78.6114 24.2262C78.6425 24.3022 78.6577 24.3838 78.6559 24.4659C78.6538 24.5392 78.6344 24.6109 78.5991 24.6752C78.5557 24.7513 78.4998 24.8194 78.4337 24.8768C78.3759 24.9291 78.3278 24.9912 78.2916 25.0602C78.2606 25.122 78.2438 25.19 78.2425 25.2592H77.7723C77.7725 25.1923 77.7839 25.1259 77.8059 25.0628C77.8318 24.9892 77.8665 24.9189 77.9092 24.8535L78.1443 24.577C78.16 24.5596 78.172 24.5392 78.1796 24.5169C78.1871 24.4947 78.1901 24.4712 78.1883 24.4478C78.1905 24.3995 78.1738 24.3523 78.1417 24.3161C78.128 24.3 78.111 24.287 78.0918 24.2781C78.0727 24.2692 78.0518 24.2645 78.0306 24.2644C78.0103 24.2632 77.9899 24.2663 77.9707 24.2734C77.9516 24.2805 77.9342 24.2915 77.9195 24.3057C77.8911 24.3294 77.8719 24.3623 77.8653 24.3988C77.8519 24.4475 77.8459 24.498 77.8472 24.5486H77.3537L77.3614 24.5383ZM77.5836 27.9153H78.4596L78.0203 26.6751L77.5836 27.9153Z" fill="#1E5128"/>
<path d="M81.4854 29.7062V25.6108H82.3406L84.0459 28.6003V25.6108H84.8055V29.7062H83.9736L82.245 26.7167V29.6984L81.4854 29.7062Z" fill="#1E5128"/>
<path d="M90.5698 26.8148H89.6577C89.5358 26.6447 89.3733 26.5079 89.1848 26.4169C88.9975 26.3217 88.7903 26.2721 88.5802 26.2722C88.4039 26.2709 88.2289 26.3016 88.0635 26.3626C87.9013 26.4203 87.7514 26.508 87.6216 26.621C87.4758 26.7523 87.3588 26.9125 87.278 27.0912C87.1949 27.2666 87.1509 27.4579 87.1488 27.6519C87.1486 27.7386 87.1564 27.8251 87.1721 27.9103C87.1884 27.999 87.2144 28.0857 87.2496 28.1687C87.284 28.2518 87.3264 28.3315 87.3762 28.4064C87.4247 28.4803 87.4801 28.5495 87.5415 28.6131C87.6777 28.7583 87.8421 28.8741 88.0248 28.9532C88.2075 29.0323 88.4044 29.0731 88.6035 29.073C88.8489 29.0712 89.0888 29.0005 89.2959 28.8689C89.5105 28.7423 89.6851 28.5578 89.7998 28.3366H88.1074V27.6209H90.779V27.7114C90.7829 27.9928 90.7272 28.2719 90.6154 28.5302C90.5036 28.7885 90.3383 29.0202 90.1305 29.21C89.7143 29.5983 89.1663 29.8142 88.597 29.8142C88.0278 29.8142 87.4797 29.5983 87.0635 29.21C86.8538 29.0176 86.6874 28.783 86.5751 28.5215C86.4629 28.2601 86.4074 27.9778 86.4124 27.6933C86.408 27.4088 86.4629 27.1266 86.5737 26.8645C86.6845 26.6025 86.8486 26.3664 87.0558 26.1714C87.2565 25.9694 87.4958 25.8099 87.7595 25.7025C88.0232 25.5951 88.3058 25.5419 88.5906 25.5461C89.0115 25.5443 89.4241 25.6636 89.7791 25.8898C90.1359 26.1044 90.4133 26.429 90.5698 26.8148Z" fill="#1E5128"/>
<path d="M96.1434 29.7062L94.5518 25.6108H95.3424L96.4457 28.7269L97.5464 25.6108H98.3448L96.7609 29.7062H96.1434Z" fill="#1E5128"/>
<path d="M99.7969 29.7062V25.6108H100.557V29.7062H99.7969Z" fill="#1E5128"/>
<path d="M102.357 25.244L103.176 24.4689H103.758L104.567 25.244H103.763L103.466 24.8901L103.161 25.244H102.357ZM102.378 29.7063V25.6109H104.579V26.3473H103.14V27.2904H104.52V28.0268H103.14V28.9699H104.579V29.7063H102.378ZM104.412 24.7712L104.132 24.2544L105.38 23.5181L105.678 24.0994L104.412 24.7712Z" fill="#1E5128"/>
<path d="M106.711 29.7062V26.3472H105.957V25.6108H108.235V26.3472H107.46V29.7062H106.711Z" fill="#1E5128"/>
<path d="M114.698 27.2903H115.511L114.809 28.5253L115.535 29.3005L114.997 29.7707L114.437 29.1842C114.321 29.3553 114.171 29.5012 113.997 29.6131C113.824 29.7289 113.62 29.7909 113.411 29.7914C113.057 29.7955 112.714 29.6632 112.455 29.4219C112.324 29.3073 112.22 29.1656 112.15 29.0068C112.08 28.8479 112.046 28.6757 112.049 28.5021C112.043 28.2488 112.118 28.0003 112.261 27.7915C112.409 27.5942 112.6 27.4333 112.819 27.3213C112.717 27.2222 112.63 27.1091 112.561 26.9854C112.498 26.8594 112.465 26.7205 112.465 26.5797C112.462 26.4408 112.486 26.3027 112.537 26.1735C112.588 26.0443 112.665 25.9268 112.762 25.8278C112.858 25.7276 112.975 25.6486 113.103 25.5961C113.232 25.5436 113.37 25.5186 113.509 25.5229C113.645 25.5198 113.78 25.5435 113.907 25.5927C114.034 25.6419 114.15 25.7157 114.248 25.8097C114.348 25.9013 114.427 26.0133 114.48 26.1381C114.533 26.2629 114.559 26.3976 114.555 26.5332C114.561 26.7414 114.504 26.9464 114.393 27.1223C114.271 27.2992 114.107 27.4424 113.915 27.5383L114.292 27.9595L114.698 27.2903ZM113.922 28.639L113.284 27.9259C113.153 27.9758 113.035 28.0544 112.938 28.1558C112.838 28.2632 112.784 28.4047 112.786 28.5512C112.783 28.6237 112.796 28.6959 112.824 28.7628C112.852 28.8297 112.895 28.8898 112.948 28.9387C113.056 29.039 113.199 29.0928 113.346 29.0886C113.476 29.0875 113.6 29.0377 113.695 28.9491C113.787 28.8594 113.863 28.7545 113.92 28.639H113.922ZM113.457 27.0422C113.585 26.9934 113.699 26.9155 113.791 26.8148C113.842 26.7486 113.869 26.6662 113.866 26.5823C113.871 26.5348 113.865 26.4867 113.848 26.4419C113.831 26.3971 113.805 26.3567 113.77 26.3239C113.698 26.2636 113.606 26.2323 113.512 26.2361C113.467 26.2344 113.423 26.2418 113.382 26.2578C113.341 26.2738 113.303 26.298 113.271 26.3291C113.241 26.3598 113.216 26.3966 113.2 26.437C113.184 26.4774 113.177 26.5207 113.178 26.5642C113.188 26.6812 113.237 26.7915 113.318 26.8768L113.457 27.0422Z" fill="#1E5128"/>
<path d="M120.371 29.7062H119.612V25.6109H120.844H121.038C121.085 25.6076 121.131 25.6076 121.178 25.6109C121.234 25.6198 121.291 25.6327 121.346 25.6497C121.467 25.679 121.582 25.7316 121.684 25.8047C121.852 25.9199 121.989 26.0742 122.083 26.2543C122.178 26.4344 122.227 26.6348 122.227 26.8382C122.228 27.0404 122.185 27.2404 122.103 27.4247C122.021 27.6056 121.897 27.7643 121.741 27.8872C121.63 27.9765 121.502 28.04 121.364 28.0733C121.305 28.0902 121.245 28.104 121.185 28.1146C121.127 28.125 121.069 28.1302 121.01 28.1301H120.751H120.524H120.374V29.6804L120.371 29.7062ZM120.371 27.417H120.901C120.932 27.4208 120.963 27.4208 120.994 27.417C121.029 27.4105 121.062 27.401 121.095 27.3886C121.199 27.353 121.289 27.2862 121.353 27.1974C121.421 27.1062 121.456 26.9954 121.454 26.8821C121.457 26.7695 121.419 26.6596 121.348 26.5721C121.274 26.4851 121.175 26.4228 121.064 26.3938L120.968 26.3757H120.886H120.658H120.359V27.4454L120.371 27.417Z" fill="#1E5128"/>
<path d="M123.746 29.7062V25.6108H124.506V27.2516H125.971V25.6108H126.728V29.7062H125.971V27.9879H124.506V29.7062H123.746Z" fill="#1E5128"/>
<path d="M128.547 25.6134H129.307V28.4117C129.305 28.4332 129.305 28.4548 129.307 28.4763C129.307 28.4995 129.307 28.5228 129.307 28.5486C129.315 28.6092 129.336 28.6673 129.369 28.7192C129.419 28.8239 129.497 28.9131 129.593 28.9775C129.688 29.04 129.798 29.0733 129.911 29.0731C130.014 29.0728 130.116 29.0463 130.206 28.9962C130.297 28.9461 130.373 28.8739 130.428 28.7863C130.48 28.6956 130.513 28.5955 130.526 28.4918C130.532 28.3851 130.532 28.2781 130.526 28.1714V25.6108H131.283V28.1662C131.287 28.3621 131.271 28.5578 131.234 28.7502C131.191 28.9408 131.102 29.1181 130.976 29.2669C130.841 29.4277 130.675 29.5588 130.487 29.6519C130.302 29.7483 130.097 29.7996 129.888 29.8018C129.691 29.7998 129.497 29.752 129.322 29.6622C129.153 29.5711 129.003 29.4483 128.88 29.3005C128.746 29.1467 128.651 28.9635 128.601 28.7657C128.586 28.6881 128.573 28.6029 128.56 28.5073C128.56 28.4685 128.56 28.4065 128.56 28.3264C128.56 28.2463 128.56 28.1895 128.56 28.1611V25.6134H128.547ZM129.567 30.8224V30.0756H130.304V30.8146L129.567 30.8224Z" fill="#1E5128"/>
<path d="M135.707 29.7062V25.6108H136.466V27.3833L137.74 25.6108H138.649L137.099 27.621L138.649 29.7036H137.74L136.466 27.8949V29.7036H135.707V29.7062Z" fill="#1E5128"/>
<path d="M140.174 29.7062V25.6108H140.933V29.7062H140.174Z" fill="#1E5128"/>
<path d="M142.734 25.2439L143.553 24.4688H144.135L144.944 25.2439H144.14L143.843 24.8899L143.538 25.2439H142.734ZM142.755 29.7061V25.6108H144.951V26.3472H143.512V27.2903H144.892V28.0266H143.512V28.9697H144.951V29.7061H142.755ZM143.442 30.7758V30.0394H144.176V30.7758H143.442Z" fill="#1E5128"/>
<path d="M146.667 29.7062V25.6108H147.535L149.24 28.6003V25.6108H150V29.7062H149.158L147.427 26.7167V29.6984L146.667 29.7062Z" fill="#1E5128"/>
</g>
<defs>
<clipPath id="clip0_6155_1560">
<rect width="150" height="30.4604" fill="white" transform="translate(0 0.361816)"/>
</clipPath>
</defs>
</svg>
