<?xml version="1.0" encoding="utf-8"?>
<!-- Generator: Adobe Illustrator 24.3.0, SVG Export Plug-In . SVG Version: 6.00 Build 0)  -->
<svg version="1.1" id="Layer_1" xmlns="http://www.w3.org/2000/svg" xmlns:xlink="http://www.w3.org/1999/xlink" x="0px" y="0px"
	 viewBox="0 0 20 20" style="enable-background:new 0 0 20 20;" xml:space="preserve">
<style type="text/css">
	.st0{fill:#FFFFFF;}
</style>
<g id="category-new-each" transform="translate(-0.781 -1.562)">
	<path id="Path_4336" class="st0" d="M19.4,7.6h-3.3v1.3h3.3v4h-4.7v1.3h2v1.4c-1.4,0.4-2.3,1.8-1.9,3.2c0.4,1.4,1.8,2.3,3.2,1.9
		s2.3-1.8,1.9-3.2c-0.2-0.9-1-1.7-1.9-1.9v-1.4h1.3c0.7,0,1.3-0.6,1.3-1.3v-4C20.8,8.2,20.2,7.6,19.4,7.6L19.4,7.6z M18.8,18.2
		c0,0.7-0.6,1.3-1.3,1.3c-0.7,0-1.3-0.6-1.3-1.3s0.6-1.3,1.3-1.3l0,0C18.2,16.9,18.8,17.5,18.8,18.2z"/>
	<path id="Path_4337" class="st0" d="M12.8,4.9H9.4v1.3h3.3v4H8.1v1.3h2v4.1c-1.4,0.4-2.3,1.8-1.9,3.2c0.4,1.4,1.8,2.3,3.2,1.9
		s2.3-1.8,1.9-3.2c-0.2-0.9-1-1.7-1.9-1.9v-4.1h1.3c0.7,0,1.3-0.6,1.3-1.3v-4C14.1,5.5,13.5,4.9,12.8,4.9L12.8,4.9z M12.1,18.2
		c0,0.7-0.6,1.3-1.3,1.3S9.4,19,9.4,18.2c0-0.7,0.6-1.3,1.3-1.3l0,0C11.5,16.9,12.1,17.5,12.1,18.2z"/>
	<path id="Path_4338" class="st0" d="M6.1,2.2h-4c-0.7,0-1.3,0.6-1.3,1.3v4c0,0.7,0.6,1.3,1.3,1.3h1.3v6.8C2,16,1.2,17.5,1.5,18.9
		c0.4,1.4,1.8,2.3,3.2,1.9s2.3-1.8,1.9-3.2c-0.2-0.9-1-1.7-1.9-1.9V8.9h1.3c0.7,0,1.3-0.6,1.3-1.3c0,0,0,0,0,0v-4
		C7.5,2.8,6.9,2.2,6.1,2.2C6.1,2.2,6.1,2.2,6.1,2.2L6.1,2.2z M5.4,18.2c0,0.7-0.6,1.3-1.3,1.3S2.8,19,2.8,18.2
		c0-0.7,0.6-1.3,1.3-1.3S5.4,17.5,5.4,18.2L5.4,18.2z M2.1,7.6v-4h4v4H2.1z"/>
</g>
</svg>
