<?xml version="1.0" encoding="utf-8"?>
<!-- Generator: Adobe Illustrator 24.3.0, SVG Export Plug-In . SVG Version: 6.00 Build 0)  -->
<svg version="1.1" id="Layer_1" xmlns="http://www.w3.org/2000/svg" xmlns:xlink="http://www.w3.org/1999/xlink" x="0px" y="0px"
	 viewBox="0 0 20 20" style="enable-background:new 0 0 20 20;" xml:space="preserve">
<style type="text/css">
	.st0{fill:#016B64;}
</style>
<path id="Path_4246" class="st0" d="M10,0c1.1,0,2.2,0.3,3.1,0.9c1,0.6,1.7,1.4,2.3,2.3c0.6,1,0.9,2.1,0.8,3.2c0,1-0.3,2.1-0.8,3
	c-0.5,0.9-1.2,1.7-2,2.3c1.1,0.5,2,1.1,2.8,1.9c0.8,0.8,1.5,1.8,1.9,2.9c0.5,1.1,0.7,2.3,0.7,3.5h-1.8c0-1.3-0.3-2.5-1-3.6
	c-0.6-1.1-1.5-2-2.6-2.6c-1.1-0.6-2.3-1-3.6-1c-1.3,0-2.5,0.3-3.6,1c-1.1,0.6-2,1.5-2.6,2.6c-0.6,1.1-1,2.4-1,3.6H1
	c0-1.8,0.5-3.6,1.6-5.1c1-1.5,2.3-2.6,3.9-3.3c-0.8-0.6-1.5-1.4-2-2.3C4,8.4,3.7,7.4,3.7,6.4c0-1.1,0.3-2.2,0.8-3.2
	c0.6-1,1.3-1.8,2.3-2.3C7.8,0.3,8.9,0,10,0z M10,1.8C9.2,1.8,8.4,2,7.8,2.4c-0.7,0.4-1.2,1-1.6,1.6C5.7,4.8,5.5,5.6,5.5,6.4
	c0,0.8,0.2,1.6,0.6,2.3c0.4,0.7,1,1.2,1.6,1.6c0.7,0.4,1.5,0.6,2.3,0.6c0.8,0,1.6-0.2,2.3-0.6c0.7-0.4,1.2-1,1.6-1.6
	c0.4-0.7,0.6-1.5,0.6-2.3c0-0.8-0.2-1.6-0.6-2.3c-0.4-0.7-1-1.3-1.6-1.6C11.6,2,10.8,1.8,10,1.8L10,1.8z"/>
</svg>
