<?xml version="1.0" encoding="utf-8"?>
<!-- Generator: Adobe Illustrator 24.0.0, SVG Export Plug-In . SVG Version: 6.00 Build 0)  -->
<svg version="1.1" id="Layer_1" xmlns="http://www.w3.org/2000/svg" xmlns:xlink="http://www.w3.org/1999/xlink" x="0px" y="0px"
	 viewBox="0 0 15 15" style="enable-background:new 0 0 15 15;" xml:space="preserve">
<path id="Path_4346" d="M0.7,1h1.4c0.3,0,0.6,0.1,0.8,0.3C3.1,1.5,3.2,1.7,3.3,2l1.7,6.8h7.2l1.2-4.5H4.8L4.4,3H15l-1.6,6.2
	c-0.1,0.3-0.2,0.5-0.4,0.7c-0.2,0.2-0.5,0.3-0.8,0.3H4.9c-0.3,0-0.5-0.1-0.8-0.3C3.9,9.6,3.8,9.4,3.7,9.1L2.1,2.3H0.6
	c-0.2,0-0.3-0.1-0.4-0.2C0.1,2,0,1.8,0,1.7c0-0.2,0.1-0.3,0.2-0.5C0.3,1.1,0.5,1,0.7,1z M5.7,10.1c0.5,0,1,0.2,1.3,0.6
	C7.4,11,7.6,11.5,7.6,12c0,0.5-0.2,1-0.6,1.4C6.7,13.8,6.2,14,5.7,14c-0.5,0-1-0.2-1.3-0.6C4,13,3.8,12.5,3.8,12
	c0-0.5,0.2-1,0.6-1.4C4.7,10.3,5.2,10.1,5.7,10.1z M5.7,11.4c-0.2,0-0.3,0.1-0.4,0.2c-0.1,0.1-0.2,0.3-0.2,0.5
	c0,0.2,0.1,0.3,0.2,0.5c0.1,0.1,0.3,0.2,0.4,0.2c0.2,0,0.3-0.1,0.5-0.2c0.1-0.1,0.2-0.3,0.2-0.5c0-0.2-0.1-0.3-0.2-0.5
	C6,11.4,5.9,11.4,5.7,11.4L5.7,11.4z M11.4,10.1c0.5,0,1,0.2,1.3,0.6c0.4,0.4,0.6,0.9,0.6,1.4c0,0.5-0.2,1-0.6,1.4
	c-0.3,0.4-0.8,0.6-1.3,0.6c-0.5,0-1-0.2-1.3-0.6C9.7,13,9.5,12.5,9.5,12c0-0.5,0.2-1,0.6-1.4C10.4,10.3,10.9,10.1,11.4,10.1
	L11.4,10.1z M11.4,11.4c-0.2,0-0.3,0.1-0.5,0.2c-0.1,0.1-0.2,0.3-0.2,0.5c0,0.2,0.1,0.3,0.2,0.5c0.1,0.1,0.3,0.2,0.5,0.2
	c0.2,0,0.3-0.1,0.5-0.2c0.1-0.1,0.2-0.3,0.2-0.5c0-0.2-0.1-0.3-0.2-0.5C11.7,11.5,11.5,11.4,11.4,11.4L11.4,11.4z"/>
</svg>
