<svg xmlns="http://www.w3.org/2000/svg" width="30.381" height="30.381" viewBox="0 0 30.381 30.381">
  <path id="phone-alt" d="M15.19,0a15.19,15.19,0,1,0,15.19,15.19A15.191,15.191,0,0,0,15.19,0ZM9.731,6.034a.925.925,0,0,1,.81.5l2.077,3.939a1.142,1.142,0,0,1-.232,1.3l-.951.951a.462.462,0,0,0-.1.271,8.118,8.118,0,0,0,2.447,3.61c.976.9,2.025,2.108,3.387,2.4a.535.535,0,0,0,.5-.048l1.106-1.126a1.265,1.265,0,0,1,1.341-.193h.019l3.748,2.212a.9.9,0,0,1,.214,1.417l-2.582,2.561a1.873,1.873,0,0,1-1.38.523,11.943,11.943,0,0,1-5.921-2.23A22.838,22.838,0,0,1,7.3,14.577a9.753,9.753,0,0,1-1.262-4.3,1.88,1.88,0,0,1,.525-1.4L9.144,6.3a1.006,1.006,0,0,1,.588-.267Z" fill="#005961"/>
</svg>
