<svg id="location" xmlns="http://www.w3.org/2000/svg" width="14.973" height="19.056" viewBox="0 0 14.973 19.056">
  <path id="Path_4352" data-name="Path 4352" d="M15.778,15.806a3.4,3.4,0,1,1,3.4-3.4A3.4,3.4,0,0,1,15.778,15.806Zm0-5.445A2.042,2.042,0,1,0,17.82,12.4,2.042,2.042,0,0,0,15.778,10.361Z" transform="translate(-8.292 -4.917)" fill="#005961"/>
  <path id="Path_4353" data-name="Path 4353" d="M13.111,21.306,7.37,14.535q-.12-.152-.237-.307A7.411,7.411,0,0,1,5.625,9.736a7.486,7.486,0,0,1,14.973,0,7.408,7.408,0,0,1-1.508,4.49v0s-.2.268-.235.3Zm-4.892-7.9s.159.209.2.255l4.7,5.54,4.7-5.547c.03-.038.189-.249.19-.249a6.058,6.058,0,0,0,1.232-3.67,6.125,6.125,0,1,0-12.25,0A6.06,6.06,0,0,0,8.22,13.408Z" transform="translate(-5.625 -2.25)" fill="#005961"/>
</svg>
